<svg width="36" height="23" viewBox="0 0 36 23" fill="none" xmlns="http://www.w3.org/2000/svg">
<path d="M1.5 23C1.06667 23 0.708333 22.8642 0.425 22.5927C0.141667 22.3212 0 21.9778 0 21.5625C0 21.1472 0.141667 20.8038 0.425 20.5323C0.708333 20.2608 1.06667 20.125 1.5 20.125H34.5C34.9333 20.125 35.2917 20.2608 35.575 20.5323C35.8583 20.8038 36 21.1472 36 21.5625C36 21.9778 35.8583 22.3212 35.575 22.5927C35.2917 22.8642 34.9333 23 34.5 23H1.5ZM1.5 12.9375C1.06667 12.9375 0.708333 12.8017 0.425 12.5302C0.141667 12.2587 0 11.9153 0 11.5C0 11.0847 0.141667 10.7413 0.425 10.4698C0.708333 10.1983 1.06667 10.0625 1.5 10.0625H34.5C34.9333 10.0625 35.2917 10.1983 35.575 10.4698C35.8583 10.7413 36 11.0847 36 11.5C36 11.9153 35.8583 12.2587 35.575 12.5302C35.2917 12.8017 34.9333 12.9375 34.5 12.9375H1.5ZM1.5 2.875C1.06667 2.875 0.708333 2.73924 0.425 2.46771C0.141667 2.19618 0 1.85278 0 1.4375C0 1.02222 0.141667 0.67882 0.425 0.407292C0.708333 0.135764 1.06667 0 1.5 0H34.5C34.9333 0 35.2917 0.135764 35.575 0.407292C35.8583 0.67882 36 1.02222 36 1.4375C36 1.85278 35.8583 2.19618 35.575 2.46771C35.2917 2.73924 34.9333 2.875 34.5 2.875H1.5Z" fill="#EDEDF5"/>
</svg>
